HIERARCHY
ROOT Hips
{
	OFFSET 0.00000 0.00000 0.00000
	CHANNELS 6 Xposition Yposition Zposition Zrotation Yrotation Xrotation 
	JOINT LHipJoint
	{
		OFFSET 0 0 0
		CHANNELS 3 Zrotation Yrotation Xrotation
		JOINT LeftUpLeg
		{
			OFFSET 1.62964 -1.40469 0.78906
			CHANNELS 3 Zrotation Yrotation Xrotation
			JOINT LeftLeg
			{
				OFFSET 2.29640 -6.30932 0.00000
				CHANNELS 3 Zrotation Yrotation Xrotation
				JOINT LeftFoot
				{
					OFFSET 2.29451 -6.30412 0.00000
					CHANNELS 3 Zrotation Yrotation Xrotation
					JOINT LeftToeBase
					{
						OFFSET 0.03611 -0.09921 1.56387
						CHANNELS 3 Zrotation Yrotation Xrotation
						End Site
						{
							OFFSET 0.00000 -0.00000 0.80291
						}
					}
				}
			}
		}
	}
	JOINT RHipJoint
	{
		OFFSET 0 0 0
		CHANNELS 3 Zrotation Yrotation Xrotation
		JOINT RightUpLeg
		{
			OFFSET -1.73712 -1.40469 0.78906
			CHANNELS 3 Zrotation Yrotation Xrotation
			JOINT RightLeg
			{
				OFFSET -2.28137 -6.26801 0.00000
				CHANNELS 3 Zrotation Yrotation Xrotation
				JOINT RightFoot
				{
					OFFSET -2.28681 -6.28298 0.00000
					CHANNELS 3 Zrotation Yrotation Xrotation
					JOINT RightToeBase
					{
						OFFSET -0.15927 -0.43759 1.61103
						CHANNELS 3 Zrotation Yrotation Xrotation
						End Site
						{
							OFFSET -0.00000 -0.00000 0.84630
						}
					}
				}
			}
		}
	}
	JOINT LowerBack
	{
		OFFSET 0 0 0
		CHANNELS 3 Zrotation Yrotation Xrotation
		JOINT Spine
		{
			OFFSET -0.04227 2.04338 -0.00225
			CHANNELS 3 Zrotation Yrotation Xrotation
			JOINT Spine1
			{
				OFFSET -0.02148 2.04482 -0.04273
				CHANNELS 3 Zrotation Yrotation Xrotation
				JOINT Neck
				{
					OFFSET 0 0 0
					CHANNELS 3 Zrotation Yrotation Xrotation
					JOINT Neck1
					{
						OFFSET 0.09180 1.44629 0.19359
						CHANNELS 3 Zrotation Yrotation Xrotation
						JOINT Head
						{
							OFFSET 0.00887 1.40645 0.14750
							CHANNELS 3 Zrotation Yrotation Xrotation
							End Site
							{
								OFFSET -0.00669 1.50671 0.03707
							}
						}
					}
				}
				JOINT LeftShoulder
				{
					OFFSET 0 0 0
					CHANNELS 3 Zrotation Yrotation Xrotation
					JOINT LeftArm
					{
						OFFSET 2.17674 1.86763 -0.06520
						CHANNELS 3 Zrotation Yrotation Xrotation
						JOINT LeftForeArm
						{
							OFFSET 4.65776 -0.00000 0.00000
							CHANNELS 3 Zrotation Yrotation Xrotation
							JOINT LeftHand
							{
								OFFSET 3.55539 -0.00000 0.00000
								CHANNELS 3 Zrotation Yrotation Xrotation
								JOINT LeftFingerBase
								{
									OFFSET 0 0 0
									CHANNELS 3 Zrotation Yrotation Xrotation
									JOINT LeftHandIndex1
									{
										OFFSET 0.70726 -0.00000 0.00000
										CHANNELS 3 Zrotation Yrotation Xrotation
										End Site
										{
											OFFSET 0.57022 -0.00000 0.00000
										}
									}
								}
								JOINT LThumb
								{
									OFFSET 0 0 0
									CHANNELS 3 Zrotation Yrotation Xrotation
									End Site
									{
										OFFSET 0.57892 -0.00000 0.57892
									}
								}
							}
						}
					}
				}
				JOINT RightShoulder
				{
					OFFSET 0 0 0
					CHANNELS 3 Zrotation Yrotation Xrotation
					JOINT RightArm
					{
						OFFSET -2.80694 1.55459 -0.32496
						CHANNELS 3 Zrotation Yrotation Xrotation
						JOINT RightForeArm
						{
							OFFSET -4.71925 -0.00000 -0.00000
							CHANNELS 3 Zrotation Yrotation Xrotation
							JOINT RightHand
							{
								OFFSET -3.56990 -0.00000 0.00000
								CHANNELS 3 Zrotation Yrotation Xrotation
								JOINT RightFingerBase
								{
									OFFSET 0 0 0
									CHANNELS 3 Zrotation Yrotation Xrotation
									JOINT RightHandIndex1
									{
										OFFSET -0.50776 -0.00000 0.00000
										CHANNELS 3 Zrotation Yrotation Xrotation
										End Site
										{
											OFFSET -0.40937 -0.00000 0.00000
										}
									}
								}
								JOINT RThumb
								{
									OFFSET 0 0 0
									CHANNELS 3 Zrotation Yrotation Xrotation
									End Site
									{
										OFFSET -0.41562 -0.00000 0.41562
									}
								}
							}
						}
					}
				}
			}
		}
	}
}
MOTION
Frames: 6
Frame Time: .0083333
9.4037 16.3388 9.4344 0 0 0 0 0 0 -21 0 0 0 0 0 0 0 0 0 0 0 0 0 0 21 0 0 0 0 0 0 0 0 0 0 0 0 0 0 0 0 0 0 0 0 0 0 -16 0 0 21 0 0 11 0 0 0 -8 0 0 0 0 0 0 0 0 0 0 0 0 0 0 0 0 0 0 0 0 8 0 0 0 0 0 0 0 0 0 0 0 0 0 0 0 0 0
9.4037 16.3388 9.4344 -179.5710 -3.7384 -151.1870 0.0000 0.0000 0.0000 -14.7284 -17.9723 -22.4761 0.1500 2.4955 6.8773 0.1863 1.7928 -9.0167 4.5584 -12.8685 -38.8782 0.0000 0.0000 0.0000 17.0403 16.2152 -22.5656 -0.1021 -2.0601 5.6717 -0.9699 -1.3686 -19.1477 -3.2435 11.0792 -32.5475 -5.1478 -1.6881 -30.0616 -0.1884 -1.4687 -3.0171 1.9374 -1.3319 12.4796 -4.0155 0.0747 0.4293 7.0090 -0.7588 8.7202 2.9945 -0.4809 2.7881 0.0000 0.0000 0.0000 -85.6222 -0.6834 19.7553 9.9342 -16.6366 -1.4561 -0.0000 -0.0000 8.3156 21.6282 -11.1845 -4.3979 -7.1250 0.0000 -0.0000 -3.8515 17.9881 2.4794 0.0000 0.0000 0.0000 93.0947 -2.7334 6.3253 -14.2229 23.0525 -2.9148 0.0000 0.0000 2.7660 -12.1711 -49.9781 9.3787 7.1250 -0.0000 -0.0000 55.9717 -74.6215 -41.9763
9.4043 16.3444 9.4351 -179.6400 -3.8279 -151.3580 0.0000 0.0000 0.0000 -14.8478 -18.0105 -22.2751 0.1513 2.5062 6.9067 0.1882 1.7316 -9.0197 4.5007 -12.7985 -38.6186 0.0000 0.0000 0.0000 17.0089 16.1757 -22.3265 -0.1000 -2.0394 5.6147 -0.9714 -1.4835 -19.2109 -3.2061 11.0215 -32.3523 -5.2054 -1.7553 -29.8520 -0.1765 -1.5273 -2.9575 1.9654 -1.3530 12.4612 -4.0524 0.0760 0.3905 7.0206 -0.7524 8.7076 3.0058 -0.4768 2.7912 -0.0000 -0.0000 0.0000 -85.6638 -0.7630 19.6031 9.9246 -16.6215 -1.4533 -0.0000 -0.0000 8.3589 21.4768 -11.1624 -4.3557 -7.1250 0.0000 -0.0000 -3.9572 18.0246 2.5446 -0.0000 -0.0000 0.0000 93.0456 -2.6758 6.3930 -14.2006 23.0208 -2.9061 0.0000 0.0000 2.7828 -12.1418 -49.9494 9.3520 7.1250 -0.0000 -0.0000 55.8992 -74.5967 -41.8897
9.4024 16.3393 9.4335 -179.6180 -3.7514 -151.2380 0.0000 0.0000 0.0000 -14.7862 -18.0903 -22.3709 0.1524 2.5158 6.9335 0.1937 1.7830 -9.1663 4.3846 -12.6553 -38.0915 0.0000 0.0000 0.0000 16.9768 16.2330 -22.5088 -0.1027 -2.0669 5.6907 -0.9749 -1.3667 -19.1946 -3.1944 11.0033 -32.2910 -5.1683 -1.7394 -29.9990 -0.1559 -1.5195 -2.9564 1.9659 -1.3519 12.5266 -4.1072 0.0818 0.3281 7.0261 -0.7401 8.7208 3.0191 -0.4700 2.8072 -0.0000 0.0000 0.0000 -85.7357 -0.8026 19.4090 9.9126 -16.6027 -1.4499 -0.0000 -0.0000 8.4465 21.4546 -11.1367 -4.3408 -7.1250 0.0000 -0.0000 -3.9720 18.0540 2.5516 -0.0000 0.0000 0.0000 92.9712 -2.6181 6.4854 -14.1787 22.9896 -2.8975 0.0000 0.0000 2.7294 -12.1338 -49.8794 9.3363 7.1250 -0.0000 -0.0000 55.6775 -74.5602 -41.6648
9.4005 16.3374 9.4320 -179.6460 -3.6990 -151.2050 0.0000 0.0000 0.0000 -14.8128 -18.1622 -22.3444 0.1507 2.5019 6.8949 0.1960 1.8418 -9.2495 4.3190 -12.5733 -37.7914 0.0000 0.0000 0.0000 16.9540 16.0774 -22.6148 -0.1038 -2.0778 5.7207 -0.9729 -1.2718 -19.1362 -3.2349 11.0659 -32.5026 -5.2002 -1.7124 -30.0273 -0.1873 -1.4779 -2.9886 1.9643 -1.3366 12.4982 -4.0666 0.0790 0.3708 7.0183 -0.7478 8.7204 3.0082 -0.4744 2.7990 0.0000 -0.0000 0.0000 -85.7109 -0.7123 19.4632 9.9305 -16.6307 -1.4550 -0.0000 -0.0000 8.4306 21.4611 -11.0688 -4.3162 -7.1250 0.0000 -0.0000 -3.9654 18.1256 2.5411 0.0000 -0.0000 0.0000 93.0337 -2.6551 6.2855 -14.1696 22.9766 -2.8940 0.0000 0.0000 2.8948 -12.0750 -49.8930 9.2924 7.1250 -0.0000 -0.0000 55.7642 -74.5444 -41.7223
9.3997 16.3369 9.4310 -179.6460 -3.6840 -151.1900 0.0000 0.0000 0.0000 -14.8155 -18.1770 -22.3347 0.1499 2.4947 6.8749 0.1955 1.8559 -9.2473 4.3536 -12.6167 -37.9499 0.0000 0.0000 0.0000 16.9722 15.9508 -22.6781 -0.1042 -2.0813 5.7304 -0.9739 -1.1450 -19.0925 -3.2867 11.1454 -32.7717 -5.2054 -1.7024 -30.0354 -0.1945 -1.4648 -2.9997 1.9642 -1.3316 12.4879 -4.0556 0.0774 0.3838 7.0191 -0.7510 8.7183 3.0061 -0.4762 2.7960 0.0000 0.0000 0.0000 -85.7162 -0.6525 19.4932 9.9726 -16.6967 -1.4671 -0.0000 -0.0000 8.3718 21.3148 -11.1526 -4.3159 -7.1250 0.0000 -0.0000 -4.0708 18.0489 2.6159 0.0000 0.0000 0.0000 93.0949 -2.6256 6.0163 -14.1458 22.9428 -2.8847 0.0000 0.0000 3.1693 -12.0450 -49.8266 9.2601 7.1250 -0.0000 -0.0000 55.5715 -74.5011 -41.5155
